HIERARCHY
ROOT Hips
{
	OFFSET 0.00000 0.00000 0.00000
	CHANNELS 6 Xposition Yposition Zposition Zrotation Yrotation Xrotation 
	JOINT LHipJoint
	{
		OFFSET 0 0 0
		CHANNELS 3 Zrotation Yrotation Xrotation
		JOINT LeftHip
		{
			OFFSET 1.56857 -1.73443 1.15205
			CHANNELS 3 Zrotation Yrotation Xrotation
			JOINT LeftKnee
			{
				OFFSET 2.39362 -6.57643 0.00000
				CHANNELS 3 Zrotation Yrotation Xrotation
				JOINT LeftAnkle
				{
					OFFSET 2.50952 -6.89485 0.00000
					CHANNELS 3 Zrotation Yrotation Xrotation
					JOINT LeftToe
					{
						OFFSET 0.17171 -0.47178 1.88682
						CHANNELS 3 Zrotation Yrotation Xrotation
						End Site
						{
							OFFSET 0.00000 -0.00000 0.98146
						}
					}
				}
			}
		}
	}
	JOINT RHipJoint
	{
		OFFSET 0 0 0
		CHANNELS 3 Zrotation Yrotation Xrotation
		JOINT RightHip
		{
			OFFSET -1.28153 -1.73443 1.15205
			CHANNELS 3 Zrotation Yrotation Xrotation
			JOINT RightKnee
			{
				OFFSET -2.26861 -6.23296 0.00000
				CHANNELS 3 Zrotation Yrotation Xrotation
				JOINT RightAnkle
				{
					OFFSET -2.54143 -6.98254 0.00000
					CHANNELS 3 Zrotation Yrotation Xrotation
					JOINT RightToe
					{
						OFFSET -0.23309 -0.64041 1.93119
						CHANNELS 3 Zrotation Yrotation Xrotation
						End Site
						{
							OFFSET -0.00000 -0.00000 1.02013
						}
					}
				}
			}
		}
	}
	JOINT lowerback
	{
		OFFSET 0 0 0
		CHANNELS 3 Zrotation Yrotation Xrotation
		JOINT Chest
		{
			OFFSET -0.07096 2.10460 -0.27878
			CHANNELS 3 Zrotation Yrotation Xrotation
			JOINT Chest2
			{
				OFFSET -0.00826 2.13662 -0.08279
				CHANNELS 3 Zrotation Yrotation Xrotation
				JOINT lowerneck
				{
					OFFSET 0 0 0
					CHANNELS 3 Zrotation Yrotation Xrotation
					JOINT Neck
					{
						OFFSET 0.03239 1.77799 0.24435
						CHANNELS 3 Zrotation Yrotation Xrotation
						JOINT Head
						{
							OFFSET 0.01026 1.74194 -0.49664
							CHANNELS 3 Zrotation Yrotation Xrotation
							End Site
							{
								OFFSET 0.00170 1.83057 -0.19653
							}
						}
					}
				}
				JOINT LeftCollar
				{
					OFFSET 0 0 0
					CHANNELS 3 Zrotation Yrotation Xrotation
					JOINT LeftShoulder
					{
						OFFSET 3.19178 1.35907 -0.31412
CHANNELS 3 Zrotation Xrotation Yrotation
						JOINT LeftElbow
						{
OFFSET 0 -4.852470 -0.000000
CHANNELS 3 Zrotation Xrotation Yrotation
							JOINT LeftWrist
							{
OFFSET 0 -3.555840 0.000000
CHANNELS 3 Zrotation Xrotation Yrotation
								JOINT lhand
								{
									OFFSET 0 0 0
CHANNELS 3 Zrotation Xrotation Yrotation
									JOINT LFingers
									{
OFFSET 0 -0.693200 0.000000
CHANNELS 3 Zrotation Xrotation Yrotation
										End Site
										{
OFFSET 0 -0.558880 0.000000
										}
									}
								}
								JOINT LThumb
								{
OFFSET 0 0.000000 0.000000
CHANNELS 3 Zrotation Xrotation Yrotation
									End Site
									{
OFFSET 0 -0.567410 0.567410
									}
								}
							}
						}
					}
				}
				JOINT RightCollar
				{
					OFFSET 0 0 0
					CHANNELS 3 Zrotation Yrotation Xrotation
					JOINT RightShoulder
					{
						OFFSET -3.28999 1.24191 -0.26899
CHANNELS 3 Zrotation Xrotation Yrotation
						JOINT RightElbow
						{
OFFSET 0 -4.644620 0.000000
CHANNELS 3 Zrotation Xrotation Yrotation
							JOINT RightWrist
							{
OFFSET 0 -3.407030 0.000000
CHANNELS 3 Zrotation Xrotation Yrotation
								JOINT rhand
								{
									OFFSET 0 0 0
CHANNELS 3 Zrotation Xrotation Yrotation
									JOINT RFingers
									{
OFFSET 0 -0.619580 0.000000
CHANNELS 3 Zrotation Xrotation Yrotation
										End Site
										{
OFFSET 0 -0.499520 0.000000
										}
									}
								}
								JOINT RThumb
								{
OFFSET 0 0.000000 0.000000
CHANNELS 3 Zrotation Xrotation Yrotation
									End Site
									{
OFFSET 0 -0.507150 0.507150
									}
								}
							}
						}
					}
				}
			}
		}
	}
}
MOTION
Frames: 8
Frame Time: 0.008333333333333333
14.424852 15.690907 -1.324791 3.382970 -45.897520 343.086544 0.000000 0.000000 0.000000 -32.510745 6.573873 -4.576989 5.300063 13.712849 42.101262 1.933403 -7.378740 -24.968094 0.759427 5.562598 15.521130 0.000000 0.000000 0.000000 1.331381 -5.115059 -30.464704 -7.303110 -15.580340 50.008912 -0.805676 -17.525937 -30.877931 -3.694412 -11.742156 34.825957 -8.852876 1.372438 23.305994 -3.752442 -0.915526 4.848723 1.208981 -0.395083 -7.574082 9.335923 8.474637 -24.354700 -15.428776 10.934114 9.410117 -5.143548 4.040262 8.327408 0.000000 0.000000 0.000000 46.864153 2.719445 0.654353 65.197810 -57.542883 38.697913 36.127435 -44.547168 13.123057 0.000000 0.000000 0.000000 -7.125000 0.000000 0.000000 5.955109 13.943375 4.366830 0.000000 0.000000 0.000000 -20.141848 26.663515 -47.173511 -20.839709 -31.637609 -5.967118 -27.876908 -22.291496 41.442219 0.000000 0.000000 0.000000 7.125000 0.000000 0.000000 15.601811 74.468795 -10.922921
14.551500 15.745231 -1.388996 3.156681 -45.068040 343.546755 0.000000 0.000000 0.000000 -32.802752 5.869763 -4.723148 5.086188 13.478867 41.190969 1.782965 -7.080276 -23.955239 0.729250 5.455079 15.211436 0.000000 0.000000 0.000000 2.515904 -5.184163 -31.501604 -7.589037 -15.807527 51.066870 -0.864376 -17.170571 -30.880401 -3.728699 -11.789781 34.993078 -9.410526 1.513604 23.201533 -3.797324 -0.853059 4.899759 1.454815 -0.360513 -7.457199 9.618424 8.685302 -23.750145 -16.007142 11.269382 9.282000 -5.339596 4.184985 8.293465 0.000000 0.000000 0.000000 47.062978 1.067316 -0.572347 64.941324 -57.488914 38.481539 35.309881 -43.224146 13.581865 0.000000 0.000000 0.000000 -7.125000 0.000000 0.000000 5.343460 13.540746 3.960765 0.000000 0.000000 0.000000 -21.128701 26.508732 -45.305264 -21.675296 -32.603010 -6.412285 -27.801076 -24.019015 40.717738 0.000000 0.000000 0.000000 7.125000 0.000000 0.000000 14.474197 73.771036 -9.909115
14.670709 15.816938 -1.455436 2.486374 -44.324607 344.352902 0.000000 0.000000 0.000000 -32.636785 5.171522 -4.770276 4.847180 13.208178 40.155284 1.611033 -7.061796 -22.735850 0.837329 5.823453 16.276949 0.000000 0.000000 0.000000 4.185311 -5.155781 -32.450197 -7.843038 -16.001929 51.994351 -0.924635 -16.805668 -30.887550 -3.712495 -11.763098 34.904967 -9.674033 1.603866 23.075829 -3.748765 -0.772472 4.916429 1.632765 -0.318675 -7.373751 9.492597 8.844288 -23.588180 -16.103295 11.611220 9.630488 -5.299048 4.327494 8.431178 0.000000 0.000000 0.000000 47.143130 -0.499533 -1.853345 64.869518 -57.473663 38.420956 34.752647 -41.827076 13.842647 0.000000 0.000000 0.000000 -7.125000 0.000000 0.000000 4.935386 13.330552 3.678367 0.000000 0.000000 0.000000 -22.135325 26.314154 -43.536822 -22.477273 -33.511776 -6.847652 -27.318359 -25.601024 39.836650 0.000000 0.000000 0.000000 7.125000 0.000000 0.000000 13.798513 72.775179 -9.143234
14.786622 15.904924 -1.521279 1.583345 -43.558037 345.377583 0.000000 0.000000 0.000000 -32.252259 4.411111 -4.731754 4.577776 12.890446 38.962111 1.428210 -7.201326 -21.371209 1.046120 6.504416 18.255071 0.000000 0.000000 0.000000 6.109702 -5.136602 -33.406357 -8.084160 -16.180421 52.864673 -0.882351 -16.743800 -30.542990 -3.316741 -11.185893 32.915205 -9.710330 1.620774 22.958106 -3.710740 -0.736572 4.872944 1.684190 -0.296915 -7.362533 9.454180 9.035122 -23.390384 -16.234224 11.973632 9.939264 -5.281130 4.481952 8.560529 0.000000 0.000000 0.000000 47.289007 -1.819047 -3.336809 65.141889 -57.531209 38.650679 34.492763 -40.714116 13.948540 0.000000 0.000000 0.000000 -7.125000 0.000000 0.000000 4.747687 13.251894 3.545253 0.000000 0.000000 0.000000 -23.310709 25.762495 -42.572163 -22.845501 -33.918049 -7.052449 -26.666110 -26.044040 38.907871 0.000000 0.000000 0.000000 7.125000 0.000000 0.000000 13.404105 71.671292 -8.556758
14.903701 16.007088 -1.584259 0.868181 -42.593102 346.287319 0.000000 0.000000 0.000000 -32.097790 3.628420 -4.610388 4.258347 12.495755 37.510193 1.244249 -6.943981 -19.928604 1.063035 6.554246 18.401527 0.000000 0.000000 0.000000 7.851235 -5.231036 -34.311830 -8.317046 -16.347530 53.696870 -0.737208 -16.743956 -29.569510 -2.873681 -10.486777 30.568874 -9.763801 1.585985 22.894245 -3.798376 -0.794559 4.787076 1.633401 -0.316863 -7.419613 9.326103 9.187539 -23.279046 -16.156332 12.281761 10.352006 -5.184625 4.619077 8.708130 0.000000 0.000000 0.000000 47.504550 -3.121694 -4.926967 65.446204 -57.594695 38.907497 34.312998 -40.190407 14.204236 0.000000 0.000000 0.000000 -7.125000 0.000000 0.000000 4.593039 12.982683 3.455068 0.000000 0.000000 0.000000 -24.041072 25.462340 -41.506603 -23.542761 -34.676048 -7.445195 -26.360680 -26.183125 38.132726 0.000000 0.000000 0.000000 7.125000 0.000000 0.000000 12.817824 70.828722 -7.939650
15.019923 16.123041 -1.645783 0.144711 -41.489169 347.176501 0.000000 0.000000 0.000000 -32.026566 2.701335 -4.289474 3.895668 12.019189 35.801347 1.070993 -6.267843 -18.471782 0.923910 6.122678 17.141045 0.000000 0.000000 0.000000 9.590798 -5.376000 -35.022637 -8.481590 -16.462225 54.279419 -0.726609 -16.387924 -29.109201 -2.576299 -9.974105 28.894069 -9.781046 1.495270 22.828499 -3.920526 -0.916350 4.743515 1.543046 -0.372010 -7.424193 8.934504 9.319659 -23.490922 -15.709406 12.580041 10.971919 -4.914008 4.752005 8.928269 0.000000 0.000000 0.000000 47.559428 -4.550493 -6.540248 65.655027 -57.637627 39.083896 34.338775 -39.906498 14.618200 0.000000 0.000000 0.000000 -7.125000 0.000000 0.000000 4.552980 12.491657 3.471594 0.000000 0.000000 0.000000 -24.429977 25.383571 -40.146604 -24.542596 -35.731570 -8.021816 -25.781365 -26.667864 37.283243 0.000000 0.000000 0.000000 7.125000 0.000000 0.000000 12.588074 69.822060 -7.514639
15.135140 16.250392 -1.707894 -0.838057 -40.295563 348.181336 0.000000 0.000000 0.000000 -31.729400 1.563813 -3.644565 3.509859 11.474489 33.901673 0.899917 -5.705263 -16.908862 0.962621 6.246830 17.502382 0.000000 0.000000 0.000000 11.591334 -5.527333 -35.440540 -8.529978 -16.495545 54.449976 -0.738471 -15.880454 -28.646294 -2.306154 -9.473669 27.290834 -9.704009 1.325442 22.793343 -3.899703 -1.101583 4.781246 1.575635 -0.463110 -7.347231 8.177509 9.551425 -24.245613 -14.855851 13.075014 11.994018 -4.397755 4.957426 9.340158 0.000000 0.000000 0.000000 47.298356 -5.940070 -8.128639 66.002633 -57.708048 39.377625 34.681508 -39.628957 14.862204 0.000000 0.000000 0.000000 -7.125000 0.000000 0.000000 4.744731 12.140671 3.653889 0.000000 0.000000 0.000000 -25.065440 25.167359 -38.488840 -25.529023 -36.736976 -8.605560 -25.296164 -27.115309 36.386241 0.000000 0.000000 0.000000 7.125000 0.000000 0.000000 12.243844 68.799056 -7.027276
15.249401 16.387762 -1.769752 -1.932479 -39.023230 349.201826 0.000000 0.000000 0.000000 -31.240808 0.487915 -2.768952 3.087347 10.827794 31.709285 0.724505 -5.307717 -15.139847 1.106409 6.678159 18.767199 0.000000 0.000000 0.000000 13.738616 -5.708866 -35.653529 -8.503775 -16.477530 54.357456 -0.705414 -15.465122 -27.959536 -1.873563 -8.580597 24.502915 -9.549017 1.141107 22.831279 -3.797875 -1.285475 4.866036 1.653262 -0.556126 -7.256248 8.695812 9.758826 -23.495215 -15.801924 13.328623 11.275806 -4.774084 5.066814 9.125428 0.000000 0.000000 0.000000 46.825489 -7.450079 -9.612910 66.354008 -57.778010 39.674760 35.048738 -39.518188 14.974310 0.000000 0.000000 0.000000 -7.125000 0.000000 0.000000 4.970332 11.938507 3.849766 0.000000 0.000000 0.000000 -25.837190 24.820992 -36.907936 -26.446093 -37.642489 -9.160072 -25.028935 -27.155744 35.660171 0.000000 0.000000 0.000000 7.125000 0.000000 0.000000 11.845464 68.008485 -6.585211
